<svg width="11" height="9" viewBox="0 0 11 9" fill="none" xmlns="http://www.w3.org/2000/svg">
<path d="M1.8 0.446484C1.4 0.0464844 0.8 0.0464844 0.4 0.446484C8.9407e-08 0.846484 8.9407e-08 1.44648 0.4 1.84648L2.6 4.14648L0.3 6.44648C0.1 6.64648 0 6.84648 0 7.14648C0 7.74648 0.4 8.14648 1 8.14648C1.3 8.14648 1.5 8.04648 1.7 7.84648L4.7 4.84648C5.1 4.44648 5.1 3.84648 4.7 3.44648L1.8 0.446484ZM10.3 3.44648L7.3 0.446484C6.9 0.0464844 6.3 0.0464844 5.9 0.446484C5.5 0.846484 5.5 1.44648 5.9 1.84648L8.2 4.14648L5.9 6.44648C5.7 6.64648 5.6 6.84648 5.6 7.14648C5.6 7.74648 6 8.14648 6.6 8.14648C6.9 8.14648 7.1 8.04648 7.3 7.84648L10.3 4.84648C10.6 4.44648 10.6 3.84648 10.3 3.44648Z" fill="#FFB800"/>
</svg>
