<svg width="16" height="17" viewBox="0 0 16 17" fill="none" xmlns="http://www.w3.org/2000/svg">
<path d="M13.9347 8.97853C13.7586 8.97853 13.5745 8.92232 13.3984 8.88218C13.0421 8.80226 12.6917 8.69763 12.3498 8.56904C11.9784 8.43353 11.5702 8.44057 11.2037 8.5888C10.8372 8.73703 10.5383 9.01597 10.3645 9.37195L10.1884 9.7413C9.41102 9.29905 8.69282 8.75945 8.05112 8.13547C7.42902 7.49183 6.89105 6.77146 6.45014 5.99169L6.81837 5.82308C7.17328 5.64878 7.45138 5.34898 7.59916 4.98138C7.74694 4.61377 7.75396 4.20434 7.61886 3.83186C7.49173 3.48582 7.38744 3.13178 7.30667 2.77201C7.26664 2.59537 7.23462 2.4107 7.21061 2.23406C7.1134 1.6685 6.81807 1.15634 6.37779 0.78981C5.93752 0.423278 5.38124 0.226462 4.80913 0.234805H2.39966C2.06125 0.23436 1.72656 0.30566 1.41755 0.444031C1.10853 0.582402 0.832163 0.784718 0.606557 1.03772C0.376271 1.29758 0.204802 1.60437 0.103931 1.93701C0.00305937 2.26964 -0.0248234 2.62024 0.022198 2.96471C0.457335 6.30654 1.97957 9.41102 4.35286 11.7968C6.73139 14.1772 9.8265 15.7041 13.1583 16.1405C13.2622 16.1485 13.3665 16.1485 13.4704 16.1405C14.0607 16.1414 14.6307 15.9242 15.0714 15.5303C15.3237 15.304 15.5254 15.0268 15.6633 14.7169C15.8013 14.4069 15.8724 14.0712 15.8719 13.7318V11.323C15.8676 10.7683 15.6725 10.232 15.3195 9.8048C14.9666 9.37764 14.4774 9.08577 13.9347 8.97853ZM14.327 13.796C14.3267 13.908 14.3031 14.0188 14.2576 14.1211C14.2121 14.2235 14.1457 14.3151 14.0628 14.3902C13.9751 14.4703 13.8707 14.5299 13.7571 14.5647C13.6436 14.5994 13.5238 14.6083 13.4064 14.5909C10.4192 14.1996 7.64307 12.8341 5.50556 10.7048C3.36623 8.55898 1.99303 5.76476 1.59917 2.75595C1.58178 2.63819 1.59071 2.51803 1.62532 2.40416C1.65993 2.29029 1.71936 2.18556 1.79929 2.09756C1.87503 2.01338 1.96769 1.94624 2.07117 1.90057C2.17465 1.8549 2.28661 1.83174 2.39966 1.8326H4.80113C4.98617 1.82807 5.16707 1.88799 5.31302 2.00218C5.45897 2.11636 5.56095 2.27775 5.60162 2.45887C5.60162 2.67566 5.67367 2.90048 5.72169 3.11726C5.81421 3.53788 5.93728 3.95114 6.08992 4.35375L4.96923 4.88367C4.77661 4.97236 4.62691 5.13406 4.55298 5.3333C4.47291 5.52878 4.47291 5.74804 4.55298 5.94352C5.70505 8.4187 7.6887 10.4084 10.1564 11.5639C10.3513 11.6442 10.5699 11.6442 10.7648 11.5639C10.9634 11.4898 11.1246 11.3396 11.2131 11.1464L11.7174 10.0223C12.1304 10.1734 12.5529 10.2967 12.9821 10.3917C13.1903 10.4398 13.4144 10.48 13.6305 10.5121C13.8111 10.5529 13.972 10.6552 14.0859 10.8016C14.1997 10.948 14.2595 11.1294 14.2549 11.315L14.327 13.796ZM9.60408 0.146484C9.41996 0.146484 9.22785 0.146484 9.04373 0.146484C8.83143 0.164585 8.63499 0.266536 8.49763 0.429911C8.36027 0.593285 8.29324 0.804699 8.31128 1.01765C8.32933 1.23059 8.43097 1.42762 8.59385 1.5654C8.75674 1.70318 8.96751 1.77041 9.17982 1.75231H9.60408C10.8779 1.75231 12.0995 2.25987 13.0003 3.16332C13.901 4.06677 14.407 5.29211 14.407 6.56979C14.407 6.71431 14.407 6.85081 14.407 6.99533C14.3893 7.20715 14.456 7.41738 14.5925 7.57993C14.7291 7.74249 14.9243 7.84409 15.1355 7.86248H15.1995C15.3999 7.86329 15.5933 7.78869 15.7415 7.65341C15.8897 7.51813 15.982 7.33201 16 7.13183C16 6.94716 16 6.75446 16 6.56979C16 4.86761 15.3264 3.23504 14.1272 2.03066C12.9279 0.82629 11.3011 0.148612 9.60408 0.146484ZM11.2051 6.56979C11.2051 6.78273 11.2894 6.98696 11.4395 7.13753C11.5896 7.28811 11.7932 7.3727 12.0055 7.3727C12.2179 7.3727 12.4215 7.28811 12.5716 7.13753C12.7217 6.98696 12.806 6.78273 12.806 6.56979C12.806 5.71801 12.4687 4.90111 11.8682 4.29881C11.2677 3.69651 10.4533 3.35814 9.60408 3.35814C9.39177 3.35814 9.18816 3.44273 9.03804 3.5933C8.88792 3.74388 8.80359 3.9481 8.80359 4.16105C8.80359 4.374 8.88792 4.57822 9.03804 4.7288C9.18816 4.87937 9.39177 4.96396 9.60408 4.96396C10.0287 4.96396 10.4359 5.13315 10.7361 5.4343C11.0364 5.73545 11.2051 6.1439 11.2051 6.56979Z" fill="#3363AF"/>
</svg>
