<svg width="14" height="19" viewBox="0 0 14 19" fill="none" xmlns="http://www.w3.org/2000/svg">
<path d="M7 0.146484C5.14348 0.146484 3.36301 0.905051 2.05025 2.25531C0.737498 3.60557 0 5.43691 0 7.34646C0 12.2064 6.16875 17.6964 6.43125 17.9304C6.58974 18.0699 6.79144 18.1465 7 18.1465C7.20856 18.1465 7.41026 18.0699 7.56875 17.9304C7.875 17.6964 14 12.2064 14 7.34646C14 5.43691 13.2625 3.60557 11.9497 2.25531C10.637 0.905051 8.85652 0.146484 7 0.146484ZM7 16.0314C5.13625 14.2314 1.75 10.3525 1.75 7.34646C1.75 5.9143 2.30312 4.54079 3.28769 3.5281C4.27226 2.5154 5.60761 1.94648 7 1.94648C8.39239 1.94648 9.72775 2.5154 10.7123 3.5281C11.6969 4.54079 12.25 5.9143 12.25 7.34646C12.25 10.3525 8.86375 14.2404 7 16.0314ZM7 3.74647C6.30777 3.74647 5.63108 3.95761 5.0555 4.35318C4.47993 4.74875 4.03133 5.31099 3.76642 5.9688C3.50151 6.62662 3.4322 7.35045 3.56725 8.04878C3.7023 8.74711 4.03564 9.38857 4.52513 9.89204C5.01461 10.3955 5.63825 10.7384 6.31718 10.8773C6.99612 11.0162 7.69985 10.9449 8.33939 10.6724C8.97893 10.3999 9.52556 9.93852 9.91014 9.34651C10.2947 8.75449 10.5 8.05847 10.5 7.34646C10.5 6.39168 10.1313 5.47601 9.47487 4.80088C8.8185 4.12576 7.92826 3.74647 7 3.74647ZM7 9.14645C6.65388 9.14645 6.31554 9.04089 6.02775 8.8431C5.73997 8.64532 5.51566 8.36419 5.38321 8.03529C5.25076 7.70638 5.2161 7.34446 5.28363 6.9953C5.35115 6.64613 5.51782 6.32541 5.76256 6.07367C6.00731 5.82194 6.31913 5.65051 6.65859 5.58105C6.99806 5.5116 7.34993 5.54725 7.6697 5.68348C7.98947 5.81972 8.26278 6.05043 8.45507 6.34644C8.64736 6.64245 8.75 6.99046 8.75 7.34646C8.75 7.82385 8.56563 8.28168 8.23744 8.61925C7.90925 8.95681 7.46413 9.14645 7 9.14645Z" fill="#3363AF"/>
</svg>
