<svg width="17" height="15" viewBox="0 0 17 15" fill="none" xmlns="http://www.w3.org/2000/svg">
<path d="M14.45 0.146484H2.55C1.8737 0.146484 1.2251 0.423046 0.746878 0.915329C0.26866 1.40761 0 2.07529 0 2.77148V11.5215C0 12.2177 0.26866 12.8854 0.746878 13.3776C1.2251 13.8699 1.8737 14.1465 2.55 14.1465H14.45C15.1263 14.1465 15.7749 13.8699 16.2531 13.3776C16.7313 12.8854 17 12.2177 17 11.5215V2.77148C17 2.07529 16.7313 1.40761 16.2531 0.915329C15.7749 0.423046 15.1263 0.146484 14.45 0.146484ZM2.55 1.89648H14.45C14.6754 1.89648 14.8916 1.98867 15.051 2.15277C15.2104 2.31686 15.3 2.53942 15.3 2.77148L8.5 7.04148L1.7 2.77148C1.7 2.53942 1.78955 2.31686 1.94896 2.15277C2.10837 1.98867 2.32457 1.89648 2.55 1.89648ZM15.3 11.5215C15.3 11.7535 15.2104 11.9761 15.051 12.1402C14.8916 12.3043 14.6754 12.3965 14.45 12.3965H2.55C2.32457 12.3965 2.10837 12.3043 1.94896 12.1402C1.78955 11.9761 1.7 11.7535 1.7 11.5215V4.76648L8.058 8.76523C8.18722 8.84203 8.33379 8.88246 8.483 8.88246C8.63221 8.88246 8.77878 8.84203 8.908 8.76523L15.3 4.76648V11.5215Z" fill="#3363AF"/>
</svg>
