<svg width="21" height="27" viewBox="0 0 21 27" fill="none" xmlns="http://www.w3.org/2000/svg">
<path d="M11.8125 15.7465H6.5625C6.2144 15.7465 5.88056 15.8834 5.63442 16.1272C5.38828 16.371 5.25 16.7017 5.25 17.0465C5.25 17.3913 5.38828 17.7219 5.63442 17.9657C5.88056 18.2095 6.2144 18.3465 6.5625 18.3465H11.8125C12.1606 18.3465 12.4944 18.2095 12.7406 17.9657C12.9867 17.7219 13.125 17.3913 13.125 17.0465C13.125 16.7017 12.9867 16.371 12.7406 16.1272C12.4944 15.8834 12.1606 15.7465 11.8125 15.7465ZM17.0625 2.74648H15.5138C15.243 1.98787 14.7419 1.33078 14.0793 0.865304C13.4166 0.399826 12.6249 0.148746 11.8125 0.146484H9.1875C8.37514 0.148746 7.58336 0.399826 6.92073 0.865304C6.25809 1.33078 5.75704 1.98787 5.48625 2.74648H3.9375C2.89321 2.74648 1.89169 3.15738 1.15327 3.88877C0.414843 4.62016 0 5.61214 0 6.64648V22.2465C0 23.2808 0.414843 24.2728 1.15327 25.0042C1.89169 25.7356 2.89321 26.1465 3.9375 26.1465H17.0625C18.1068 26.1465 19.1083 25.7356 19.8467 25.0042C20.5852 24.2728 21 23.2808 21 22.2465V6.64648C21 5.61214 20.5852 4.62016 19.8467 3.88877C19.1083 3.15738 18.1068 2.74648 17.0625 2.74648ZM7.875 4.04648C7.875 3.7017 8.01328 3.37104 8.25942 3.12725C8.50556 2.88345 8.8394 2.74648 9.1875 2.74648H11.8125C12.1606 2.74648 12.4944 2.88345 12.7406 3.12725C12.9867 3.37104 13.125 3.7017 13.125 4.04648V5.34648H7.875V4.04648ZM18.375 22.2465C18.375 22.5913 18.2367 22.9219 17.9906 23.1657C17.7444 23.4095 17.4106 23.5465 17.0625 23.5465H3.9375C3.5894 23.5465 3.25556 23.4095 3.00942 23.1657C2.76328 22.9219 2.625 22.5913 2.625 22.2465V6.64648C2.625 6.3017 2.76328 5.97104 3.00942 5.72725C3.25556 5.48345 3.5894 5.34648 3.9375 5.34648H5.25V6.64648C5.25 6.99127 5.38828 7.32193 5.63442 7.56572C5.88056 7.80952 6.2144 7.94648 6.5625 7.94648H14.4375C14.7856 7.94648 15.1194 7.80952 15.3656 7.56572C15.6117 7.32193 15.75 6.99127 15.75 6.64648V5.34648H17.0625C17.4106 5.34648 17.7444 5.48345 17.9906 5.72725C18.2367 5.97104 18.375 6.3017 18.375 6.64648V22.2465ZM14.4375 10.5465H6.5625C6.2144 10.5465 5.88056 10.6834 5.63442 10.9272C5.38828 11.171 5.25 11.5017 5.25 11.8465C5.25 12.1913 5.38828 12.5219 5.63442 12.7657C5.88056 13.0095 6.2144 13.1465 6.5625 13.1465H14.4375C14.7856 13.1465 15.1194 13.0095 15.3656 12.7657C15.6117 12.5219 15.75 12.1913 15.75 11.8465C15.75 11.5017 15.6117 11.171 15.3656 10.9272C15.1194 10.6834 14.7856 10.5465 14.4375 10.5465Z" fill="white"/>
</svg>
