<svg width="42" height="43" viewBox="0 0 42 43" fill="none" xmlns="http://www.w3.org/2000/svg">
<path d="M36.5787 23.3306C36.1164 23.3306 35.6331 23.1831 35.1708 23.0777C34.2354 22.8679 33.3156 22.5932 32.4181 22.2557C31.4433 21.9 30.3718 21.9185 29.4097 22.3076C28.4477 22.6967 27.6631 23.4289 27.2069 24.3633L26.7446 25.3329C24.7039 24.172 22.8186 22.7555 21.1342 21.1176C19.5012 19.428 18.089 17.5371 16.9316 15.4902L17.8982 15.0475C18.8299 14.59 19.5599 13.803 19.9478 12.8381C20.3357 11.8731 20.3541 10.7983 19.9995 9.82058C19.6658 8.91225 19.392 7.98288 19.18 7.03849C19.0749 6.57481 18.9909 6.09005 18.9278 5.62637C18.6727 4.14178 17.8974 2.79736 16.7417 1.83521C15.586 0.873067 14.1258 0.356424 12.624 0.378325H6.2991C5.41077 0.377158 4.53223 0.564321 3.72106 0.927544C2.9099 1.29077 2.18443 1.82185 1.59221 2.48597C0.987712 3.16812 0.537606 3.97344 0.272818 4.84661C0.00803084 5.71978 -0.0651615 6.6401 0.0582699 7.54433C1.2005 16.3166 5.19636 24.4659 11.4262 30.7284C17.6699 36.9772 25.7946 40.9851 34.5404 42.1308C34.8132 42.1517 35.0872 42.1517 35.3599 42.1308C36.9094 42.1331 38.4055 41.5629 39.5625 40.529C40.2246 39.935 40.7541 39.2073 41.1162 38.3937C41.4784 37.5801 41.665 36.6989 41.6638 35.8079V29.4849C41.6525 28.0286 41.1403 26.6209 40.2138 25.4996C39.2873 24.3783 38.0032 23.6121 36.5787 23.3306ZM37.6083 35.9765C37.6076 36.2706 37.5456 36.5613 37.4261 36.8299C37.3067 37.0985 37.1326 37.3391 36.9149 37.5361C36.6846 37.7466 36.4105 37.9031 36.1125 37.9942C35.8145 38.0853 35.5 38.1088 35.1918 38.0631C27.3504 37.0358 20.0631 33.4515 14.4521 27.862C8.83635 22.2293 5.23171 14.8945 4.19781 6.99634C4.15216 6.68722 4.17561 6.37178 4.26647 6.07288C4.35732 5.77397 4.51331 5.49906 4.72313 5.26807C4.92196 5.04708 5.1652 4.87085 5.43683 4.75097C5.70847 4.63109 6.00234 4.57028 6.2991 4.57254H12.603C13.0887 4.56064 13.5635 4.71794 13.9467 5.01768C14.3298 5.31741 14.5975 5.74106 14.7043 6.21651C14.7043 6.78557 14.8934 7.37571 15.0194 7.94478C15.2623 9.0489 15.5854 10.1337 15.986 11.1906L13.0442 12.5816C12.5386 12.8144 12.1456 13.2389 11.9516 13.7619C11.7414 14.275 11.7414 14.8506 11.9516 15.3637C14.9757 21.8611 20.1828 27.0839 26.6606 30.1172C27.1722 30.328 27.746 30.328 28.2576 30.1172C28.779 29.9226 29.2022 29.5284 29.4343 29.0212L30.7581 26.0705C31.8422 26.467 32.9513 26.7909 34.0781 27.0401C34.6245 27.1665 35.2128 27.2719 35.7802 27.3562C36.2542 27.4633 36.6766 27.7318 36.9754 28.1161C37.2742 28.5004 37.4311 28.9766 37.4192 29.4639L37.6083 35.9765ZM25.2107 0.146484C24.7274 0.146484 24.2231 0.146484 23.7398 0.146484C23.1825 0.193998 22.6668 0.46162 22.3063 0.890478C21.9457 1.31934 21.7697 1.8743 21.8171 2.43328C21.8645 2.99226 22.1313 3.50948 22.5589 3.87114C22.9864 4.2328 23.5397 4.40929 24.097 4.36178H25.2107C28.5545 4.36178 31.7613 5.69411 34.1257 8.06567C36.4901 10.4372 37.8184 13.6538 37.8184 17.0077C37.8184 17.387 37.8184 17.7453 37.8184 18.1247C37.7718 18.6807 37.947 19.2326 38.3054 19.6593C38.6639 20.086 39.1764 20.3527 39.7306 20.401H39.8987C40.4247 20.4031 40.9324 20.2073 41.3215 19.8522C41.7105 19.4971 41.9527 19.0085 42 18.483C42 17.9983 42 17.4924 42 17.0077C42 12.5394 40.2318 8.25393 37.0838 5.09245C33.9358 1.93097 29.6654 0.15207 25.2107 0.146484ZM29.4133 17.0077C29.4133 17.5666 29.6347 18.1027 30.0287 18.498C30.4228 18.8933 30.9573 19.1153 31.5146 19.1153C32.0719 19.1153 32.6063 18.8933 33.0004 18.498C33.3945 18.1027 33.6159 17.5666 33.6159 17.0077C33.6159 14.7717 32.7303 12.6274 31.154 11.0463C29.5778 9.46529 27.4399 8.57707 25.2107 8.57707C24.6534 8.57707 24.1189 8.79913 23.7249 9.19439C23.3308 9.58965 23.1094 10.1257 23.1094 10.6847C23.1094 11.2437 23.3308 11.7798 23.7249 12.175C24.1189 12.5703 24.6534 12.7924 25.2107 12.7924C26.3253 12.7924 27.3942 13.2365 28.1824 14.027C28.9705 14.8175 29.4133 15.8897 29.4133 17.0077Z" fill="#3363AF"/>
</svg>
