<svg width="19" height="20" viewBox="0 0 19 20" fill="none" xmlns="http://www.w3.org/2000/svg">
<path fill-rule="evenodd" clip-rule="evenodd" d="M7.95199 14.5647C11.1272 14.5647 13.7012 11.9907 13.7012 8.81551C13.7012 5.64033 11.1272 3.06634 7.95199 3.06634C4.77681 3.06634 2.20282 5.64033 2.20282 8.81551C2.20282 11.9907 4.77681 14.5647 7.95199 14.5647ZM7.95199 16.7675C12.3438 16.7675 15.904 13.2073 15.904 8.81551C15.904 4.42375 12.3438 0.863525 7.95199 0.863525C3.56023 0.863525 0 4.42375 0 8.81551C0 13.2073 3.56023 16.7675 7.95199 16.7675Z" fill="#3363AF"/>
<path fill-rule="evenodd" clip-rule="evenodd" d="M12.8532 13.7165C12.423 14.1467 12.423 14.844 12.8532 15.2742L16.0662 18.4873C16.4964 18.9174 17.1937 18.9174 17.6239 18.4873C18.054 18.0571 18.054 17.3598 17.6239 16.9296L14.4108 13.7165C13.9807 13.2864 13.2833 13.2864 12.8532 13.7165Z" fill="#3363AF"/>
</svg>
