<svg width="26" height="27" viewBox="0 0 26 27" fill="none" xmlns="http://www.w3.org/2000/svg">
<path d="M22.6439 14.4986C22.3578 14.4986 22.0586 14.4072 21.7724 14.342C21.1933 14.2121 20.624 14.0421 20.0684 13.8331C19.4649 13.6129 18.8016 13.6244 18.206 13.8652C17.6105 14.1061 17.1248 14.5594 16.8424 15.1379L16.5562 15.7381C15.2929 15.0194 14.1258 14.1426 13.0831 13.1286C12.0722 12.0827 11.198 10.9121 10.4815 9.64495L11.0798 9.37095C11.6566 9.08772 12.1085 8.60055 12.3486 8.00319C12.5888 7.40583 12.6002 6.74049 12.3806 6.13521C12.1741 5.57291 12.0046 4.99759 11.8733 4.41296C11.8083 4.12592 11.7563 3.82583 11.7172 3.53879C11.5593 2.61976 11.0794 1.7875 10.3639 1.19189C9.64847 0.596274 8.74452 0.276447 7.81484 0.290005H3.89944C3.34953 0.289282 2.80567 0.405145 2.30352 0.629998C1.80137 0.85485 1.35227 1.18361 0.985654 1.59474C0.611441 2.01702 0.332804 2.51555 0.168888 3.05609C0.00497147 3.59662 -0.0403381 4.16634 0.0360718 4.7261C0.743169 10.1566 3.2168 15.2014 7.07339 19.0782C10.9385 22.9464 15.9681 25.4275 21.3822 26.1368C21.551 26.1497 21.7206 26.1497 21.8895 26.1368C22.8487 26.1382 23.7749 25.7852 24.4911 25.1452C24.901 24.7775 25.2287 24.327 25.4529 23.8233C25.6771 23.3197 25.7926 22.7742 25.7919 22.2226V18.3084C25.7849 17.4069 25.4678 16.5354 24.8942 15.8413C24.3207 15.1471 23.5258 14.6728 22.6439 14.4986ZM23.2813 22.327C23.2809 22.509 23.2425 22.689 23.1686 22.8553C23.0946 23.0216 22.9868 23.1705 22.8521 23.2925C22.7095 23.4227 22.5398 23.5196 22.3554 23.576C22.1709 23.6324 21.9762 23.647 21.7854 23.6186C16.9312 22.9828 12.42 20.7639 8.94654 17.3037C5.47012 13.8168 3.23868 9.27619 2.59864 4.38687C2.57039 4.19551 2.5849 4.00024 2.64115 3.8152C2.69739 3.63016 2.79395 3.45998 2.92384 3.31699C3.04693 3.18019 3.1975 3.07109 3.36566 2.99688C3.53381 2.92267 3.71573 2.88502 3.89944 2.88643H7.80184C8.10253 2.87905 8.39648 2.97643 8.63365 3.16198C8.87082 3.34754 9.03655 3.60979 9.10263 3.90412C9.10263 4.2564 9.21971 4.62172 9.29775 4.974C9.44809 5.6575 9.64808 6.32906 9.89612 6.98329L8.075 7.84441C7.76199 7.98854 7.51873 8.2513 7.39859 8.57506C7.26849 8.89272 7.26849 9.24901 7.39859 9.56666C9.2707 13.5888 12.4941 16.822 16.5042 18.6998C16.8209 18.8303 17.1761 18.8303 17.4928 18.6998C17.8156 18.5793 18.0775 18.3353 18.2212 18.0213L19.0407 16.1947C19.7118 16.4402 20.3984 16.6407 21.096 16.7949C21.4342 16.8732 21.7984 16.9384 22.1496 16.9906C22.4431 17.0569 22.7045 17.2231 22.8895 17.461C23.0745 17.6989 23.1716 17.9937 23.1643 18.2953L23.2813 22.327ZM15.6066 0.146484C15.3074 0.146484 14.9952 0.146484 14.6961 0.146484C14.3511 0.175898 14.0319 0.341569 13.8086 0.607052C13.5854 0.872535 13.4765 1.21608 13.5058 1.56212C13.5352 1.90816 13.7003 2.22834 13.965 2.45222C14.2297 2.67611 14.5722 2.78537 14.9172 2.75595H15.6066C17.6766 2.75595 19.6618 3.58073 21.1254 5.04884C22.5891 6.51695 23.4114 8.50813 23.4114 10.5844C23.4114 10.8192 23.4114 11.041 23.4114 11.2759C23.3826 11.6201 23.491 11.9617 23.7129 12.2258C23.9348 12.49 24.2521 12.6551 24.5951 12.685H24.6992C25.0248 12.6863 25.3391 12.5651 25.58 12.3452C25.8208 12.1254 25.9707 11.823 26 11.4977C26 11.1976 26 10.8844 26 10.5844C26 7.81832 24.9054 5.16538 22.9566 3.20827C21.0079 1.25117 18.3643 0.149942 15.6066 0.146484ZM18.2082 10.5844C18.2082 10.9304 18.3453 11.2623 18.5892 11.5069C18.8332 11.7516 19.164 11.8891 19.509 11.8891C19.854 11.8891 20.1849 11.7516 20.4288 11.5069C20.6728 11.2623 20.8098 10.9304 20.8098 10.5844C20.8098 9.20021 20.2616 7.87275 19.2858 6.89401C18.31 5.91527 16.9866 5.36542 15.6066 5.36542C15.2616 5.36542 14.9308 5.50288 14.6868 5.74757C14.4429 5.99225 14.3058 6.32412 14.3058 6.67015C14.3058 7.01619 14.4429 7.34805 14.6868 7.59274C14.9308 7.83742 15.2616 7.97489 15.6066 7.97489C16.2966 7.97489 16.9583 8.24981 17.4462 8.73918C17.9341 9.22855 18.2082 9.89228 18.2082 10.5844Z" fill="white"/>
</svg>
