<svg width="18" height="17" viewBox="0 0 18 17" fill="none" xmlns="http://www.w3.org/2000/svg">
<path d="M7.27177 1.11366C8.04325 -0.210871 9.95675 -0.210873 10.7282 1.11366L12.1125 3.49036C12.3951 3.97556 12.8687 4.31962 13.4175 4.43846L16.1056 5.02057C17.6037 5.34498 18.195 7.16483 17.1737 8.30784L15.3411 10.3588C14.967 10.7775 14.7861 11.3342 14.8427 11.8929L15.1197 14.6293C15.2741 16.1544 13.7261 17.2791 12.3234 16.661L9.8065 15.5519C9.29267 15.3255 8.70733 15.3255 8.1935 15.5519L5.67659 16.661C4.27392 17.2791 2.72585 16.1544 2.88026 14.6294L3.15733 11.8929C3.21389 11.3342 3.03301 10.7775 2.65888 10.3588L0.826283 8.30785C-0.195027 7.16483 0.396277 5.34498 1.89438 5.02057L4.58253 4.43846C5.13132 4.31962 5.60487 3.97556 5.88747 3.49036L7.27177 1.11366Z" fill="#FFB800"/>
</svg>
