<svg width="14" height="14" viewBox="0 0 14 14" fill="none" xmlns="http://www.w3.org/2000/svg">
<path d="M7 2.41177e-08C5.61553 2.41177e-08 4.26215 0.410543 3.11101 1.17971C1.95987 1.94888 1.06266 3.04213 0.532846 4.32121C0.00303299 5.6003 -0.13559 7.00776 0.134506 8.36563C0.404603 9.7235 1.07129 10.9708 2.05026 11.9497C3.02922 12.9287 4.2765 13.5954 5.63437 13.8655C6.99224 14.1356 8.3997 13.997 9.67879 13.4672C10.9579 12.9373 12.0511 12.0401 12.8203 10.889C13.5895 9.73784 14 8.38447 14 7C14.0001 6.08072 13.8191 5.17044 13.4673 4.32112C13.1156 3.47181 12.5999 2.70011 11.9499 2.05008C11.2999 1.40006 10.5282 0.884444 9.67888 0.532688C8.82956 0.180932 7.91928 -7.62851e-05 7 2.41177e-08ZM9.22566 10.6067C9.19946 10.6721 9.15959 10.731 9.10874 10.7797C9.05788 10.8284 8.99721 10.8656 8.93079 10.8889C8.86436 10.9122 8.79373 10.921 8.72362 10.9148C8.6535 10.9086 8.58553 10.8874 8.52426 10.8528L6.62399 9.37621L5.40437 10.5014C5.37607 10.5223 5.34296 10.5358 5.3081 10.5405C5.27324 10.5453 5.23774 10.5412 5.20487 10.5287L5.43867 8.43673L5.44615 8.44267L5.45093 8.40137C5.45093 8.40137 8.87043 5.28811 9.00973 5.15547C9.15076 5.02317 9.10423 4.99447 9.10423 4.99447C9.11226 4.8331 8.85117 4.99447 8.85117 4.99447L4.3204 7.9093L2.43356 7.2667C2.43356 7.2667 2.14376 7.16275 2.11646 6.9342C2.08776 6.7074 2.443 6.5842 2.443 6.5842L9.9449 3.60394C9.9449 3.60394 10.5616 3.32918 10.5616 3.7842L9.22566 10.6067Z" fill="#3363AF"/>
</svg>
