<svg width="12" height="10" viewBox="0 0 12 10" fill="none" xmlns="http://www.w3.org/2000/svg">
<path d="M12 1.19807C11.549 1.39836 11.0721 1.53076 10.584 1.59116C11.0989 1.27627 11.4848 0.780889 11.67 0.196914C11.1861 0.491771 10.6565 0.699516 10.104 0.811118C9.73473 0.401181 9.24298 0.128305 8.70589 0.0352871C8.16879 -0.057731 7.61673 0.0343701 7.13627 0.297146C6.65582 0.559921 6.27416 0.978508 6.05114 1.48726C5.82813 1.99601 5.77638 2.56614 5.904 3.10824C4.92566 3.05759 3.96866 2.79681 3.09519 2.34286C2.22172 1.88891 1.45131 1.25193 0.834 0.473306C0.617483 0.860358 0.503712 1.29869 0.504 1.74471C0.503232 2.15892 0.60253 2.56689 0.793053 2.93231C0.983576 3.29773 1.25941 3.60926 1.596 3.83915C1.20479 3.82825 0.821931 3.72079 0.48 3.5259V3.55661C0.482932 4.13697 0.681597 4.69847 1.04239 5.14615C1.40318 5.59383 1.90395 5.9002 2.46 6.01343C2.24595 6.08011 2.02373 6.11527 1.8 6.11785C1.64513 6.11599 1.49065 6.10162 1.338 6.07485C1.49635 6.57408 1.80277 7.01037 2.21464 7.32301C2.62652 7.63565 3.12335 7.80909 3.636 7.81919C2.77032 8.51648 1.70153 8.89703 0.6 8.90019C0.399441 8.90086 0.199041 8.88856 0 8.86334C1.12466 9.60668 2.43529 10.0013 3.774 9.99962C4.69782 10.0094 5.61428 9.83072 6.46987 9.47391C7.32546 9.11709 8.10301 8.58933 8.75712 7.92145C9.41123 7.25358 9.92878 6.45897 10.2795 5.58404C10.6303 4.70912 10.8072 3.77142 10.8 2.82571C10.8 2.72129 10.8 2.61074 10.8 2.50018C11.2708 2.14075 11.6769 1.70013 12 1.19807Z" fill="#3363AF"/>
</svg>
