<svg width="16" height="17" viewBox="0 0 16 17" fill="none" xmlns="http://www.w3.org/2000/svg">
<path d="M10.9707 8.71394C11.7589 8.09722 12.3342 7.25152 12.6166 6.29449C12.899 5.33746 12.8744 4.31669 12.5463 3.37419C12.2182 2.4317 11.6028 1.61435 10.7859 1.03585C9.96892 0.457357 8.99097 0.146484 7.98808 0.146484C6.98519 0.146484 6.00723 0.457357 5.19027 1.03585C4.37331 1.61435 3.75797 2.4317 3.42985 3.37419C3.10173 4.31669 3.07716 5.33746 3.35954 6.29449C3.64193 7.25152 4.21723 8.09722 5.00542 8.71394C3.65485 9.25206 2.47642 10.1446 1.59578 11.2964C0.715138 12.4482 0.165288 13.816 0.0048493 15.2542C-0.00676409 15.3592 0.00253114 15.4654 0.0322041 15.5668C0.061877 15.6683 0.111346 15.7629 0.177788 15.8453C0.311973 16.0117 0.507144 16.1183 0.720365 16.1417C0.933586 16.165 1.14739 16.1031 1.31475 15.9697C1.4821 15.8362 1.5893 15.6421 1.61275 15.4301C1.78929 13.8671 2.53865 12.4237 3.71767 11.3754C4.89669 10.3272 6.4227 9.74777 8.00416 9.74777C9.58561 9.74777 11.1116 10.3272 12.2906 11.3754C13.4697 12.4237 14.219 13.8671 14.3956 15.4301C14.4174 15.6265 14.5117 15.808 14.6601 15.9394C14.8086 16.0708 15.0008 16.1429 15.1995 16.1417H15.2879C15.4987 16.1175 15.6913 16.0116 15.8238 15.8468C15.9563 15.6821 16.018 15.4719 15.9954 15.2622C15.8342 13.82 15.2814 12.4486 14.3962 11.295C13.5111 10.1415 12.3269 9.24922 10.9707 8.71394ZM7.98808 8.14627C7.35205 8.14627 6.73031 7.9587 6.20147 7.60728C5.67264 7.25586 5.26046 6.75638 5.01706 6.17199C4.77367 5.58761 4.70998 4.94456 4.83406 4.32418C4.95815 3.7038 5.26442 3.13394 5.71416 2.68667C6.1639 2.2394 6.7369 1.93481 7.3607 1.81141C7.98451 1.68801 8.6311 1.75134 9.21871 1.9934C9.80632 2.23546 10.3086 2.64538 10.6619 3.17131C11.0153 3.69725 11.2039 4.31558 11.2039 4.94811C11.2039 5.79632 10.8651 6.60978 10.262 7.20955C9.65891 7.80932 8.84096 8.14627 7.98808 8.14627Z" fill="#3363AF"/>
</svg>
