<svg width="14" height="9" viewBox="0 0 14 9" fill="none" xmlns="http://www.w3.org/2000/svg">
<path d="M13.9968 3.17188C14.0282 2.3391 13.8292 1.51255 13.4181 0.768978C13.1391 0.463872 12.752 0.257974 12.3242 0.187161C10.5546 0.0402667 8.77777 -0.0199404 7.00119 0.00679754C5.23108 -0.0211539 3.4606 0.0371103 1.69727 0.181343C1.34864 0.23936 1.02602 0.388959 0.768761 0.611887C0.196395 1.0948 0.132799 1.92098 0.0692028 2.61916C-0.0230676 3.87446 -0.0230676 5.13402 0.0692028 6.38933C0.0876013 6.78229 0.151556 7.17236 0.259991 7.55296C0.336673 7.84682 0.491814 8.11869 0.711525 8.34424C0.970532 8.57897 1.30067 8.73708 1.65911 8.79805C3.03019 8.95289 4.41169 9.01705 5.79286 8.99005C8.01873 9.01914 9.97113 8.99005 12.2797 8.82714C12.6469 8.76992 12.9864 8.61161 13.2527 8.37333C13.4307 8.21037 13.5637 8.01091 13.6406 7.79151C13.8681 7.15303 13.9798 6.48481 13.9713 5.81333C13.9968 5.48751 13.9968 3.52097 13.9968 3.17188ZM5.56392 6.16242V2.56097L9.32881 4.37043C8.27312 4.9057 6.88036 5.51079 5.56392 6.16242Z" fill="#3363AF"/>
</svg>
