<svg width="133" height="40" viewBox="0 0 133 40" fill="none" xmlns="http://www.w3.org/2000/svg">
<path d="M29.5496 31.4153H24.8302V39.4684H16.7323V31.4153H0V25.701L17.1881 0.611296H24.8302V25.0365H29.5496V31.4153ZM16.7323 25.0365V18.4452C16.7323 17.825 16.7412 17.0897 16.7591 16.2392C16.7948 15.3887 16.8306 14.5382 16.8663 13.6877C16.9021 12.8372 16.9378 12.0842 16.9736 11.4286C17.0272 10.7553 17.063 10.2857 17.0808 10.0199H16.8663C16.5267 10.7464 16.1692 11.4551 15.7938 12.1462C15.4183 12.8195 14.9804 13.5282 14.4798 14.2724L7.29355 25.0365H16.7323Z" fill="white"/>
<path d="M59.8768 20.0399C59.8768 23.1761 59.6265 25.9756 59.126 28.4385C58.6433 30.9014 57.8568 32.9922 56.7663 34.711C55.6938 36.4297 54.2815 37.7409 52.5296 38.6445C50.7778 39.5482 48.6505 40 46.1478 40C43.0015 40 40.4184 39.2115 38.3984 37.6346C36.3784 36.0399 34.8857 33.7542 33.9204 30.7774C32.955 27.7829 32.4724 24.2038 32.4724 20.0399C32.4724 15.8405 32.9104 12.2525 33.7863 9.27575C34.6801 6.28128 36.1281 3.98671 38.1302 2.39203C40.1324 0.797342 42.8049 0 46.1478 0C49.2761 0 51.8503 0.797342 53.8704 2.39203C55.9083 3.96899 57.4188 6.25471 58.402 9.24917C59.3852 12.2259 59.8768 15.8228 59.8768 20.0399ZM40.7044 20.0399C40.7044 22.9989 40.8653 25.4707 41.1871 27.4551C41.5267 29.4219 42.0899 30.9014 42.8764 31.8937C43.663 32.8859 44.7534 33.3821 46.1478 33.3821C47.5243 33.3821 48.6058 32.8948 49.3923 31.9203C50.1968 30.928 50.7688 29.4485 51.1085 27.4817C51.4481 25.4972 51.6179 23.0166 51.6179 20.0399C51.6179 17.0808 51.4481 14.6091 51.1085 12.6246C50.7688 10.6401 50.1968 9.15172 49.3923 8.15947C48.6058 7.1495 47.5243 6.64452 46.1478 6.64452C44.7534 6.64452 43.663 7.1495 42.8764 8.15947C42.0899 9.15172 41.5267 10.6401 41.1871 12.6246C40.8653 14.6091 40.7044 17.0808 40.7044 20.0399Z" fill="white"/>
<path d="M98.9724 39.4684H90.6867V22.6977H75.1611V39.4684H66.8486V0.611296H75.1611V15.8405H90.6867V0.611296H98.9724V39.4684Z" fill="white"/>
<path d="M120.531 9.14286C124.553 9.14286 127.637 10.0111 129.782 11.7475C131.927 13.4839 133 16.124 133 19.6678V39.4684H127.289L125.706 35.4286H125.492C124.634 36.4917 123.758 37.3599 122.864 38.0332C121.97 38.7065 120.942 39.2027 119.78 39.5216C118.618 39.8405 117.206 40 115.544 40C113.774 40 112.183 39.6633 110.771 38.99C109.376 38.3167 108.277 37.289 107.473 35.907C106.668 34.5072 106.266 32.7353 106.266 30.5914C106.266 27.4374 107.383 25.1163 109.618 23.6279C111.852 22.1218 115.204 21.289 119.673 21.1296L124.875 20.9701V19.6678C124.875 18.1085 124.464 16.9657 123.642 16.2392C122.819 15.5127 121.675 15.1495 120.209 15.1495C118.761 15.1495 117.34 15.3533 115.946 15.7608C114.552 16.1683 113.157 16.6822 111.763 17.3023L109.055 11.8272C110.646 10.9945 112.424 10.3389 114.391 9.86047C116.375 9.38206 118.422 9.14286 120.531 9.14286ZM124.875 25.701L121.711 25.8073C119.065 25.8782 117.224 26.3477 116.187 27.2159C115.168 28.0842 114.659 29.227 114.659 30.6445C114.659 31.8848 115.025 32.7708 115.758 33.3023C116.491 33.8162 117.448 34.0731 118.627 34.0731C120.379 34.0731 121.854 33.5592 123.052 32.5316C124.267 31.5039 124.875 30.0421 124.875 28.1462V25.701Z" fill="white"/>
</svg>
