<svg width="77" height="69" viewBox="0 0 77 69" fill="none" xmlns="http://www.w3.org/2000/svg">
<path d="M60.291 20.47C61.301 20.4658 62.2689 20.0665 62.986 19.3583L65.7195 16.6367C66.1225 16.293 66.4499 15.8701 66.6809 15.3946C66.912 14.919 67.0419 14.401 67.0624 13.873C67.0829 13.3451 66.9935 12.8187 66.7999 12.3268C66.6064 11.8348 66.3128 11.3881 65.9376 11.0145C65.5624 10.6409 65.1137 10.3486 64.6196 10.1559C64.1256 9.96317 63.5969 9.87421 63.0666 9.89461C62.5364 9.915 62.0162 10.0443 61.5385 10.2744C61.0609 10.5045 60.6361 10.8304 60.291 11.2317L57.75 13.9533C57.0329 14.6716 56.6304 15.6431 56.6304 16.6558C56.6304 17.6685 57.0329 18.6401 57.75 19.3583C58.4287 20.0306 59.3346 20.4269 60.291 20.47ZM38.5 11.5C39.5211 11.5 40.5003 11.0961 41.2224 10.3772C41.9444 9.65835 42.35 8.68333 42.35 7.66667V3.83333C42.35 2.81667 41.9444 1.84165 41.2224 1.12276C40.5003 0.403868 39.5211 0 38.5 0C37.4789 0 36.4997 0.403868 35.7776 1.12276C35.0556 1.84165 34.65 2.81667 34.65 3.83333V7.66667C34.65 8.68333 35.0556 9.65835 35.7776 10.3772C36.4997 11.0961 37.4789 11.5 38.5 11.5ZM7.7 34.5H3.85C2.82892 34.5 1.84965 34.9039 1.12764 35.6228C0.405624 36.3416 0 37.3167 0 38.3333C0 39.35 0.405624 40.325 1.12764 41.0439C1.84965 41.7628 2.82892 42.1667 3.85 42.1667H7.7C8.72108 42.1667 9.70035 41.7628 10.4224 41.0439C11.1444 40.325 11.55 39.35 11.55 38.3333C11.55 37.3167 11.1444 36.3416 10.4224 35.6228C9.70035 34.9039 8.72108 34.5 7.7 34.5ZM14.014 19.3583C14.7311 20.0665 15.699 20.4658 16.709 20.47C17.2157 20.4729 17.718 20.3762 18.187 20.1855C18.6561 19.9947 19.0828 19.7136 19.4425 19.3583C20.1596 18.6401 20.5621 17.6685 20.5621 16.6558C20.5621 15.6431 20.1596 14.6716 19.4425 13.9533L16.709 11.2317C15.9725 10.6037 15.0251 10.2755 14.0561 10.3128C13.0872 10.35 12.168 10.75 11.4824 11.4327C10.7967 12.1154 10.395 13.0305 10.3576 13.9953C10.3202 14.9601 10.6498 15.9033 11.2805 16.6367L14.014 19.3583ZM73.15 34.5H69.3C68.2789 34.5 67.2997 34.9039 66.5776 35.6228C65.8556 36.3416 65.45 37.3167 65.45 38.3333C65.45 39.35 65.8556 40.325 66.5776 41.0439C67.2997 41.7628 68.2789 42.1667 69.3 42.1667H73.15C74.1711 42.1667 75.1503 41.7628 75.8724 41.0439C76.5944 40.325 77 39.35 77 38.3333C77 37.3167 76.5944 36.3416 75.8724 35.6228C75.1503 34.9039 74.1711 34.5 73.15 34.5ZM34.65 61.3333H23.1C22.0789 61.3333 21.0997 61.7372 20.3776 62.4561C19.6556 63.175 19.25 64.15 19.25 65.1667C19.25 66.1833 19.6556 67.1584 20.3776 67.8772C21.0997 68.5961 22.0789 69 23.1 69H34.65C35.6711 69 36.6503 68.5961 37.3724 67.8772C38.0944 67.1584 38.5 66.1833 38.5 65.1667C38.5 64.15 38.0944 63.175 37.3724 62.4561C36.6503 61.7372 35.6711 61.3333 34.65 61.3333ZM61.6 46H58.212C59.1844 43.5602 59.6809 40.9582 59.675 38.3333C59.675 32.7417 57.4441 27.3791 53.473 23.4252C49.5019 19.4713 44.116 17.25 38.5 17.25C32.884 17.25 27.4981 19.4713 23.527 23.4252C19.5559 27.3791 17.325 32.7417 17.325 38.3333C17.3191 40.9582 17.8157 43.5602 18.788 46H15.4C14.3789 46 13.3997 46.4039 12.6776 47.1228C11.9556 47.8416 11.55 48.8167 11.55 49.8333C11.55 50.85 11.9556 51.825 12.6776 52.5439C13.3997 53.2628 14.3789 53.6667 15.4 53.6667H61.6C62.6211 53.6667 63.6003 53.2628 64.3224 52.5439C65.0444 51.825 65.45 50.85 65.45 49.8333C65.45 48.8167 65.0444 47.8416 64.3224 47.1228C63.6003 46.4039 62.6211 46 61.6 46ZM49.4725 46H27.5275C25.91 43.7672 25.0349 41.0863 25.025 38.3333C25.025 34.775 26.4447 31.3624 28.9717 28.8463C31.4988 26.3302 34.9262 24.9167 38.5 24.9167C42.0738 24.9167 45.5012 26.3302 48.0283 28.8463C50.5553 31.3624 51.975 34.775 51.975 38.3333C51.9651 41.0863 51.09 43.7672 49.4725 46ZM53.9 61.3333H50.05C49.0289 61.3333 48.0497 61.7372 47.3276 62.4561C46.6056 63.175 46.2 64.15 46.2 65.1667C46.2 66.1833 46.6056 67.1584 47.3276 67.8772C48.0497 68.5961 49.0289 69 50.05 69H53.9C54.9211 69 55.9003 68.5961 56.6224 67.8772C57.3444 67.1584 57.75 66.1833 57.75 65.1667C57.75 64.15 57.3444 63.175 56.6224 62.4561C55.9003 61.7372 54.9211 61.3333 53.9 61.3333Z" fill="white"/>
</svg>
